<?xml version="1.0" encoding="UTF-8"?>
<svg version="1.1" xmlns="http://www.w3.org/2000/svg" width="1024" height="1024">
<path d="M0 0 C337.92 0 675.84 0 1024 0 C1024 337.92 1024 675.84 1024 1024 C686.08 1024 348.16 1024 0 1024 C0 686.08 0 348.16 0 0 Z " fill="#FDFDFD" transform="translate(0,0)"/>
<path d="M0 0 C2.69824236 -0.00217717 5.3960682 -0.0203816 8.09423828 -0.03930664 C24.6914578 -0.09440232 40.99573421 1.21895289 57.28564453 4.49780273 C58.38730957 4.71581543 59.48897461 4.93382812 60.62402344 5.15844727 C69.63850197 6.99299586 78.37158258 9.29206949 87.09814453 12.18530273 C87.84628418 12.42442383 88.59442383 12.66354492 89.36523438 12.90991211 C108.83290348 19.1517611 127.66553687 27.47997377 145.09814453 38.18530273 C146.36471501 38.93850688 147.63165917 39.69108293 148.89892578 40.44311523 C159.2022861 46.63599835 168.72970703 53.66377258 178.09814453 61.18530273 C178.68241211 61.65097656 179.26667969 62.11665039 179.86865234 62.59643555 C188.02268446 69.152943 195.48864988 76.3802862 202.91064453 83.74780273 C203.78237305 84.61018555 204.65410156 85.47256836 205.55224609 86.36108398 C211.48840447 92.3266181 216.88221565 98.5843208 222.09814453 105.18530273 C222.62690186 105.84409424 223.15565918 106.50288574 223.70043945 107.18164062 C236.62589075 123.40730243 247.3858351 141.37483525 256.09814453 160.18530273 C256.4677832 160.97001953 256.83742188 161.75473633 257.21826172 162.56323242 C262.23661422 173.24119434 266.7839474 183.84461701 270.09814453 195.18530273 C270.45537598 196.38678955 270.45537598 196.38678955 270.81982422 197.61254883 C274.8535266 211.30617599 277.97988494 225.06551941 280.09814453 239.18530273 C280.36848511 240.92904175 280.36848511 240.92904175 280.64428711 242.70800781 C282.05706371 252.68625069 282.37767214 262.47782309 282.30395508 272.54833984 C282.28568664 275.1168825 282.28344661 277.68506104 282.28369141 280.25366211 C282.24932443 296.81280158 281.46704878 312.93421988 278.09814453 329.18530273 C277.88496582 330.22106445 277.67178711 331.25682617 277.45214844 332.32397461 C271.87504133 359.11558344 271.87504133 359.11558344 267.09814453 371.18530273 C266.7473584 372.07282227 266.39657227 372.9603418 266.03515625 373.87475586 C252.43888932 407.92395569 235.02010649 438.63377503 210.22314453 465.84155273 C208.27319729 467.99222984 206.36788324 470.17355245 204.47314453 472.37280273 C198.81233164 478.85345749 192.62815805 484.59596118 186.09814453 490.18530273 C185.17388672 490.99870117 184.24962891 491.81209961 183.29736328 492.65014648 C143.30901703 527.56739124 93.96030553 547.35370285 42.09814453 556.18530273 C41.31568359 556.32097656 40.53322266 556.45665039 39.72705078 556.59643555 C2.82328595 562.69552145 -38.51427928 558.42003478 -73.90185547 547.18530273 C-74.91119141 546.90299805 -75.92052734 546.62069336 -76.96044922 546.32983398 C-114.43003874 535.73086643 -148.00830768 515.28287325 -177.33935547 490.06030273 C-177.97260742 489.51575439 -178.60585938 488.97120605 -179.25830078 488.41015625 C-181.87064001 486.12273304 -183.96537034 484.09003042 -185.90185547 481.18530273 C-174.11041411 475.0585451 -162.0625818 469.67934876 -149.85009766 464.44995117 C-145.21438218 462.46146109 -140.58940114 460.44845659 -135.96435547 458.43530273 C-135.04154785 458.03400146 -134.11874023 457.6327002 -133.16796875 457.21923828 C-107.34953309 446.02610332 -107.34953309 446.02610332 -81.65185547 434.56030273 C-72.75173972 430.52077374 -63.76788195 426.68571062 -54.77636719 422.85473633 C-45.12478331 418.73334852 -35.5305934 414.49587325 -25.95825195 410.19384766 C-20.42432441 407.71459678 -14.87193605 405.34727836 -9.23046875 403.12426758 C-5.48484386 401.61392229 -1.82298408 399.92939121 1.84814453 398.24780273 C10.351914 394.38883953 18.90163042 390.6407856 27.47314453 386.93530273 C28.42513733 386.52370407 28.42513733 386.52370407 29.3963623 386.10379028 C32.65955473 384.69328383 35.92318642 383.28379717 39.18701172 381.87475586 C44.87154183 379.42011254 50.55228 376.95672276 56.23321533 374.49377441 C59.35469423 373.14057168 62.47643283 371.78796831 65.59814453 370.43530273 C66.84814577 369.89363892 68.09814577 369.35197226 69.34814453 368.81030273 C71.84814453 367.7269694 74.34814453 366.64363607 76.84814453 365.56030273 C77.46683411 365.29220291 78.08552368 365.02410309 78.72296143 364.74787903 C79.97356881 364.2059512 81.22417916 363.66403022 82.47479248 363.12211609 C85.59052386 361.7720013 88.70620433 360.42176927 91.82177734 359.07128906 C97.55731596 356.58529724 103.29329967 354.10035143 109.03106689 351.61950684 C112.30366746 350.2044965 115.57597365 348.7888064 118.84814453 347.37280273 C119.48490112 347.09728577 120.12165771 346.8217688 120.77770996 346.53790283 C127.9856191 343.41789271 135.18150545 340.27411729 142.34814453 337.06030273 C149.40951164 333.89483352 156.52849328 330.87501728 163.66064453 327.87280273 C172.02183154 324.35093836 180.36036665 320.78601892 188.66064453 317.12280273 C189.64911377 316.68661621 190.63758301 316.25042969 191.65600586 315.80102539 C195.88353827 313.93373273 200.11021381 312.0645037 204.33685303 310.19519043 C226.81660305 300.25539554 249.32008761 290.42480586 272.09814453 281.18530273 C267.97248525 282.28701561 263.847743 283.39212558 259.72314453 284.49780273 C257.98871094 284.96089844 257.98871094 284.96089844 256.21923828 285.43334961 C250.42382047 286.9886171 244.65806021 288.60024151 238.91796875 290.34765625 C232.25595797 292.32664837 225.54581014 294.14374033 218.84814453 295.99780273 C217.22467978 296.44803987 215.6012261 296.89831689 213.9777832 297.34863281 C205.46068082 299.70952281 196.93987459 302.05605214 188.41064453 304.37280273 C167.45152665 309.98960451 167.45152665 309.98960451 146.66064453 316.18530273 C139.32502508 318.49302773 131.88587996 320.41901846 124.45800781 322.40356445 C109.81029297 326.32114608 95.18978099 330.34666636 80.66064453 334.68530273 C72.30676634 337.17979119 63.88563334 339.41719233 55.46386719 341.66967773 C48.93156705 343.41798655 42.41728129 345.20517966 35.92236328 347.08764648 C29.34338516 348.97599465 22.74693544 350.8026122 16.15258789 352.63647461 C11.44729583 353.94920035 6.75020624 355.27760994 2.07470703 356.69311523 C-3.51748011 358.3856347 -9.14622279 359.9389431 -14.77685547 361.49780273 C-22.49168305 363.64292049 -30.18145615 365.84523559 -37.83935547 368.18530273 C-46.56798632 370.84563491 -55.3621315 373.22529699 -64.17871094 375.57543945 C-77.91116235 379.24107389 -91.55824174 383.1870392 -105.18505859 387.2253418 C-111.42762248 389.06565195 -117.69487617 390.8142441 -123.96435547 392.56030273 C-132.62330765 394.97418112 -141.27023363 397.42533654 -149.90185547 399.93530273 C-150.87388916 400.21680176 -151.84592285 400.49830078 -152.84741211 400.78833008 C-157.87553022 402.25645127 -162.85878432 403.81143216 -167.82080078 405.48901367 C-170.95528885 406.53776543 -174.10708632 407.49766683 -177.27685547 408.43530273 C-178.46021484 408.79108398 -179.64357422 409.14686523 -180.86279297 409.51342773 C-183.90185547 410.18530273 -183.90185547 410.18530273 -186.90185547 409.18530273 C-175.09272737 403.22410645 -163.24654809 397.35585009 -151.30175781 391.67114258 C-143.22643749 387.82568772 -135.16974881 383.94276494 -127.12075806 380.04257202 C-125.71305672 379.36054579 -124.30516718 378.67890783 -122.89706421 377.99771118 C-114.81518421 374.08747791 -106.76193154 370.12602771 -98.73736572 366.09947205 C-92.26108727 362.85432601 -85.74292161 359.69884087 -79.21435547 356.56030273 C-77.95826935 355.95521093 -76.702249 355.34998258 -75.44628906 354.74462891 C-72.22288595 353.19121936 -68.99894059 351.63893911 -65.77484131 350.0869751 C-49.04770202 342.0343786 -32.33889579 333.9456212 -15.65185547 325.81030273 C-3.28163646 319.77959479 9.09038717 313.75273359 21.47314453 307.74780273 C22.15965088 307.41486206 22.84615723 307.08192139 23.5534668 306.7388916 C31.97401994 302.65621427 40.40547202 298.59706818 48.84814453 294.56030273 C61.80845936 288.36155674 74.70361103 282.02978374 87.60638428 275.71243286 C99.3045159 269.98557814 111.01005499 264.27856426 122.76318359 258.6652832 C132.31577629 254.09672248 141.83131508 249.45274971 151.34814453 244.81030273 C163.98283636 238.64724054 176.62630369 232.50379115 189.29052734 226.40161133 C198.14016554 222.13575289 206.97725535 217.84453053 215.81173706 213.5473938 C229.21085064 207.03016768 242.62717328 200.55311377 256.09814453 194.18530273 C243.1136156 198.1056691 230.17638074 202.05407953 217.42572021 206.68345642 C213.35539026 208.12451298 209.24496896 209.34964238 205.09375 210.53295898 C197.45132012 212.74898426 189.89745188 215.17274349 182.35879135 217.71716309 C179.31197823 218.74545616 176.26272654 219.76644375 173.2137394 220.78826904 C171.53615501 221.35060452 169.85869654 221.91331574 168.18135643 222.47637939 C158.30107299 225.79224504 148.40951472 229.074112 138.5187912 232.3586731 C131.99158431 234.52697699 125.46557612 236.69888571 118.93941879 238.87034607 C113.35091391 240.72964853 107.76202867 242.58779254 102.17236328 244.44360352 C96.65107663 246.27677519 91.13078051 248.11290133 85.61114883 249.9510498 C83.53761956 250.64100506 81.46374162 251.32991348 79.38949203 252.0177002 C76.50871559 252.97309518 73.62922762 253.93228317 70.75 254.89233398 C69.91678726 255.16767471 69.08357452 255.44301544 68.22511292 255.72669983 C63.17080721 257.41729683 58.22431806 259.2919266 53.29498482 261.31887817 C50.24334874 262.5224306 47.13748763 263.38890961 43.97314453 264.24780273 C34.62423381 266.88194743 25.47981724 270.10336172 16.30944824 273.29058838 C6.64305773 276.64866827 -3.0402375 279.90670542 -12.82641602 282.90356445 C-16.70855802 284.10550737 -20.48365972 285.39501956 -24.23388672 286.96264648 C-31.79111676 290.04778313 -39.61084478 292.40640281 -47.37796021 294.89941406 C-63.4221785 300.05190352 -79.40479229 305.34330582 -95.31201172 310.90405273 C-103.4796955 313.75096174 -111.69197234 316.46315036 -119.90185547 319.18530273 C-122.87851305 320.17329767 -125.85504215 321.16167937 -128.83154297 322.15014648 C-129.56196808 322.39271179 -130.29239319 322.6352771 -131.04495239 322.88519287 C-148.72820031 328.74174649 -148.72820031 328.74174649 -166.33935547 334.81030273 C-167.43050659 335.19400024 -167.43050659 335.19400024 -168.54370117 335.58544922 C-172.19411982 336.87176465 -175.84232688 338.16412009 -179.48876953 339.46166992 C-182.81223366 340.64350214 -186.13911912 341.81532023 -189.46780396 342.98236084 C-190.78969818 343.44777073 -192.1104227 343.9165175 -193.42990112 344.38873291 C-195.27305045 345.04803796 -197.12058039 345.69505734 -198.96826172 346.34155273 C-200.04019775 346.72118164 -201.11213379 347.10081055 -202.21655273 347.49194336 C-204.90185547 348.18530273 -204.90185547 348.18530273 -207.90185547 347.18530273 C-190.98392239 338.67763101 -174.06522489 330.18733444 -156.95654297 322.06811523 C-149.99804984 318.76396256 -143.06470203 315.40818712 -136.13284302 312.0486145 C-134.72003145 311.36399032 -133.30701656 310.67978552 -131.89376831 309.99606323 C-121.85565355 305.13937977 -111.86519666 300.19347283 -101.90185547 295.18530273 C-100.66870991 294.56573781 -99.43555579 293.94618995 -98.20239258 293.32666016 C-97.60328064 293.02565399 -97.0041687 292.72464783 -96.38690186 292.41452026 C-81.58915902 284.9805534 -66.75365509 277.65158207 -51.78955078 270.55639648 C-46.50867209 268.04900599 -41.23632286 265.52386234 -35.96435547 262.99780273 C-34.99457764 262.5347876 -34.0247998 262.07177246 -33.02563477 261.59472656 C-24.60046022 257.55832846 -16.24897944 253.37989698 -7.90185547 249.18530273 C-6.60100337 248.53188007 -5.30014091 247.87847803 -3.99926758 247.22509766 C-3.36295914 246.90549072 -2.7266507 246.58588379 -2.07106018 246.2565918 C11.56056261 239.41054992 25.19994445 232.60068163 38.98339844 226.0637207 C49.80926462 220.91992825 60.50754164 215.5223834 71.20654297 210.12084961 C80.90226624 205.22677153 90.67210564 200.50284747 100.47192383 195.82055664 C107.42492852 192.49050754 114.3377743 189.09034478 121.22314453 185.62280273 C128.34981961 182.03403095 135.51173655 178.53795354 142.72314453 175.12280273 C152.92163449 170.28812857 163.01242146 165.24944711 173.09814453 160.18530273 C185.84295221 153.78795556 198.62304164 147.4856252 211.52099609 141.40112305 C214.25426487 140.1116499 216.98500921 138.81693861 219.71533203 137.52124023 C224.17456385 135.40563991 228.63571613 133.29415163 233.09814453 131.18530273 C214.79319107 137.21691904 196.51754841 143.31766102 178.34814453 149.74780273 C177.63289612 150.00074097 176.91764771 150.2536792 176.1807251 150.51428223 C167.68958437 153.51677533 167.68958437 153.51677533 159.24169922 156.63818359 C154.80191633 158.30921249 150.32832714 159.87643489 145.84814453 161.43530273 C144.9905957 161.7346875 144.13304687 162.03407227 143.24951172 162.3425293 C139.6174997 163.61049418 135.98474239 164.87631771 132.35205078 166.14233398 C129.68382114 167.07257761 127.01597595 168.00391777 124.34814453 168.93530273 C123.53958008 169.21664062 122.73101563 169.49797852 121.89794922 169.7878418 C117.55903756 171.30275935 113.24460942 172.86822466 108.94564819 174.49291992 C106.22480155 175.51260258 103.48490039 176.47479486 100.74267578 177.43530273 C99.50839844 177.86883057 98.27412109 178.3023584 97.00244141 178.74902344 C96.34107178 178.98110504 95.67970215 179.21318665 94.99829102 179.45230103 C79.00746532 185.06690228 63.04982382 190.773073 47.09814453 196.49780273 C45.96500824 196.90442139 44.83187195 197.31104004 43.66439819 197.72998047 C39.09847612 199.3684458 34.5325607 201.00692967 29.96669006 202.64553833 C19.22201193 206.50100662 8.47365235 210.34612265 -2.27685547 214.18530273 C-3.12930847 214.48977325 -3.98176147 214.79424377 -4.86004639 215.10794067 C-13.60526812 218.23099466 -22.35256614 221.34808343 -31.10498047 224.45092773 C-31.828638 224.70749146 -32.55229553 224.96405518 -33.29788208 225.22839355 C-36.63723142 226.41201834 -39.97695825 227.59455958 -43.31738281 228.77514648 C-48.5514453 230.6277051 -53.77386183 232.49824118 -58.96582031 234.46557617 C-63.77384668 236.25297362 -68.63412663 237.89846955 -73.47998047 239.57983398 C-74.32044922 239.87245117 -75.16091797 240.16506836 -76.02685547 240.46655273 C-76.77193359 240.72500977 -77.51701172 240.9834668 -78.28466797 241.24975586 C-81.06374141 242.24317092 -83.82389462 243.28341346 -86.58599854 244.32287598 C-91.15380259 246.02392943 -95.74428355 247.66261058 -100.33154297 249.31030273 C-101.4251413 249.70354736 -102.51873962 250.09679199 -103.64547729 250.50195312 C-113.2817791 253.96572234 -122.92187515 257.41889094 -132.5625 260.87060547 C-161.81215685 271.34324621 -191.04896902 281.85265573 -220.23779297 292.49389648 C-224.28152765 293.96575242 -228.33801848 295.39490652 -232.40185547 296.81030273 C-241.64917581 300.04341722 -250.820056 303.48244013 -259.98779297 306.93383789 C-261.11314453 307.35455566 -262.23849609 307.77527344 -263.39794922 308.20874023 C-264.41042725 308.58949707 -265.42290527 308.97025391 -266.46606445 309.36254883 C-268.90185547 310.18530273 -268.90185547 310.18530273 -270.90185547 310.18530273 C-275.17283294 274.2633315 -273.22967004 237.96070656 -262.90185547 203.18530273 C-262.39732911 201.43287698 -261.89344396 199.68026652 -261.39013672 197.92749023 C-260.87494595 196.1587544 -260.35805905 194.39051159 -259.83935547 192.62280273 C-259.4896167 191.42699585 -259.4896167 191.42699585 -259.1328125 190.20703125 C-246.97588893 149.80909336 -222.18862293 111.34102909 -191.90185547 82.18530273 C-191.05623047 81.33967773 -190.21060547 80.49405273 -189.33935547 79.62280273 C-188.53498047 78.81842773 -187.73060547 78.01405273 -186.90185547 77.18530273 C-186.34369141 76.60393555 -185.78552734 76.02256836 -185.21044922 75.42358398 C-179.80532499 69.86558756 -174.02826945 64.92860664 -167.90185547 60.18530273 C-166.89783691 59.40727295 -166.89783691 59.40727295 -165.87353516 58.61352539 C-129.76576799 30.8549776 -87.40843128 11.32896757 -42.58935547 2.93530273 C-41.73124268 2.7720752 -40.87312988 2.60884766 -39.98901367 2.44067383 C-26.74748716 0.08333315 -13.4065451 -0.00120411 0 0 Z " fill="#07347F" transform="translate(507.90185546875,224.814697265625)"/>
<path d="M0 0 C2.12890625 1.57421875 2.12890625 1.57421875 4.5625 3.6875 C16.62478157 13.78503076 29.29267458 23.15502693 43.01416016 30.87402344 C45.14321712 32.0812045 47.24833764 33.32529429 49.35546875 34.5703125 C73.14689913 48.38613373 99.12242764 57.80735604 125.8125 64.1875 C127.28626099 64.54497314 127.28626099 64.54497314 128.78979492 64.90966797 C147.30712711 69.14483342 165.61950591 70.49503592 184.57739258 70.39111328 C188.06305958 70.37499741 191.54757035 70.39108369 195.03320312 70.41015625 C213.85017337 70.42902001 231.73909129 68.27208262 250.0625 64.0625 C251.7012207 63.70381836 251.7012207 63.70381836 253.37304688 63.33789062 C261.64705262 61.47464156 269.89005014 59.27625466 277.65649414 55.81665039 C280 55 280 55 283 56 C264.48456266 68.08301093 244.80681857 77.58536523 224 85 C223.12617676 85.31807617 222.25235352 85.63615234 221.35205078 85.96386719 C204.96184058 91.85953761 188.12739658 95.1170732 171 98 C170.14519043 98.14840332 169.29038086 98.29680664 168.40966797 98.44970703 C131.63718658 104.59345198 90.25262944 100.19188959 55 89 C53.48599609 88.57654297 53.48599609 88.57654297 51.94140625 88.14453125 C14.47181673 77.5455637 -19.10645221 57.09757052 -48.4375 31.875 C-49.38737793 31.05817749 -49.38737793 31.05817749 -50.35644531 30.22485352 C-52.96878454 27.9374303 -55.06351488 25.90472769 -57 23 C-45.11229948 16.82322673 -32.96426466 11.39769327 -20.64501953 6.14111328 C-18.27097061 5.11690203 -15.91228932 4.06605428 -13.55859375 2.99609375 C-12.91422363 2.70686035 -12.26985352 2.41762695 -11.60595703 2.11962891 C-9.94920363 1.37402222 -8.29666608 0.61906673 -6.64453125 -0.13671875 C-3.75132909 -1.08117618 -2.73878737 -1.24692758 0 0 Z " fill="#4AAA2A" transform="translate(379,683)"/>
<path d="M0 0 C0.99 0.495 0.99 0.495 2 1 C-3.77050853 5.78755617 -9.58712005 10.47284807 -15.5625 15 C-21.32028238 19.38539563 -26.69213523 24.08410063 -32 29 C-33.01169717 29.91032738 -34.02478152 30.81911487 -35.0390625 31.7265625 C-40.74705758 36.85125881 -46.15985483 42.0321509 -51 48 C-51.42748535 48.52045898 -51.8549707 49.04091797 -52.29541016 49.57714844 C-63.86364287 63.67825647 -74.05494873 78.09647604 -83 94 C-83.3801123 94.66306152 -83.76022461 95.32612305 -84.15185547 96.00927734 C-97.43716371 119.27729877 -107.40409224 145.76815713 -111.39453125 172.30859375 C-112 176 -112 176 -112.97265625 179.65625 C-120.37707737 208.39650189 -118.211351 241.02456109 -114 270 C-115.0621875 270.32613281 -116.124375 270.65226562 -117.21875 270.98828125 C-118.64587202 271.4295624 -120.07295317 271.87097576 -121.5 272.3125 C-122.19609375 272.52583984 -122.8921875 272.73917969 -123.609375 272.95898438 C-128.47564749 274.46843001 -133.24107503 276.18107922 -138 278 C-142.6221783 279.73674631 -147.24846705 281.46239383 -151.875 283.1875 C-153.10992187 283.65091797 -154.34484375 284.11433594 -155.6171875 284.59179688 C-156.7928125 285.02943359 -157.9684375 285.46707031 -159.1796875 285.91796875 C-160.24944824 286.31781982 -161.31920898 286.7176709 -162.42138672 287.12963867 C-165 288 -165 288 -167 288 C-171.27097747 252.07802877 -169.32781457 215.77540383 -159 181 C-158.49547364 179.24757424 -157.9915885 177.49496378 -157.48828125 175.7421875 C-156.97309048 173.97345166 -156.45620358 172.20520885 -155.9375 170.4375 C-155.58776123 169.24169312 -155.58776123 169.24169312 -155.23095703 168.02172852 C-143.07403346 127.62379063 -118.28676746 89.15572635 -88 60 C-87.154375 59.154375 -86.30875 58.30875 -85.4375 57.4375 C-84.633125 56.633125 -83.82875 55.82875 -83 55 C-82.44183594 54.41863281 -81.88367188 53.83726562 -81.30859375 53.23828125 C-75.90346952 47.68028482 -70.12641398 42.7433039 -64 38 C-62.99598145 37.22197021 -62.99598145 37.22197021 -61.97167969 36.42822266 C-45.38455393 23.67654735 -27.91596738 12.93313522 -9 4 C-8.03707031 3.53464844 -7.07414063 3.06929687 -6.08203125 2.58984375 C-4.08705018 1.6542008 -2.04831752 0.81226384 0 0 Z " fill="#4AAB2A" transform="translate(404,247)"/>
<path d="M0 0 C0 3 0 3 -2 6 C-1.505 6.99 -1.505 6.99 -1 8 C-5.64092896 9.5963762 -10.28565873 11.18093895 -14.93432617 12.75463867 C-16.51550856 13.29176345 -18.09559934 13.83211281 -19.67456055 14.37573242 C-21.94301263 15.15611415 -24.21512457 15.92485383 -26.48828125 16.69140625 C-27.54780754 17.06006554 -27.54780754 17.06006554 -28.6287384 17.43617249 C-33.65838488 19.11387171 -33.65838488 19.11387171 -37 18 C-32.21408991 15.59468956 -27.42687447 13.19200463 -22.63842773 10.79174805 C-21.00948479 9.97476152 -19.3809015 9.15705748 -17.75268555 8.33862305 C-15.41288834 7.16266279 -13.07181178 5.98928511 -10.73046875 4.81640625 C-10.00224411 4.44971329 -9.27401947 4.08302032 -8.52372742 3.70521545 C-5.70773559 2.29706326 -2.99130959 0.9971032 0 0 Z " fill="#0F357E" transform="translate(337,554)"/>
<path d="M0 0 C0.66 0.33 1.32 0.66 2 1 C0.23361856 2.48448016 -1.53826138 3.96241965 -3.3125 5.4375 C-4.29863281 6.26121094 -5.28476562 7.08492187 -6.30078125 7.93359375 C-9 10 -9 10 -12 11 C-12.33 10.01 -12.66 9.02 -13 8 C-13.99 7.67 -14.98 7.34 -16 7 C-13.3789879 5.80293183 -10.75385304 4.61711354 -8.125 3.4375 C-7.00544922 2.92413086 -7.00544922 2.92413086 -5.86328125 2.40039062 C-3.93450668 1.54026143 -1.9688967 0.76383202 0 0 Z " fill="#51A835" transform="translate(404,247)"/>
<path d="M0 0 C-0.33 0.99 -0.66 1.98 -1 3 C-0.34 3.66 0.32 4.32 1 5 C-1.37407592 5.64939736 -3.7491639 6.29460053 -6.125 6.9375 C-6.79015625 7.11990234 -7.4553125 7.30230469 -8.140625 7.49023438 C-12.07445227 8.55082506 -15.96973565 9.40362132 -20 10 C-16.57544124 7.20356382 -12.81870229 5.25995711 -8.875 3.3125 C-8.24207031 2.99216797 -7.60914063 2.67183594 -6.95703125 2.34179688 C-2.25346482 0 -2.25346482 0 0 0 Z " fill="#1D4085" transform="translate(341,625)"/>
<path d="M0 0 C0 3 0 3 -2 6 C-1.67 6.66 -1.34 7.32 -1 8 C-4.3 8.33 -7.6 8.66 -11 9 C-11 8.01 -11 7.02 -11 6 C-7.85428958 2.980118 -3.98459623 1.60916386 0 0 Z " fill="#1D488D" transform="translate(337,554)"/>
<path d="M0 0 C-2.28929053 1.17154293 -4.58118362 2.33738074 -6.875 3.5 C-7.52597656 3.83386719 -8.17695312 4.16773438 -8.84765625 4.51171875 C-13.7734375 7 -13.7734375 7 -16 7 C-16 6.34 -16 5.68 -16 5 C-16.99 4.67 -17.98 4.34 -19 4 C-16.39898714 3.13499112 -13.79493589 2.28273072 -11.1875 1.4375 C-10.44951172 1.19064453 -9.71152344 0.94378906 -8.95117188 0.68945312 C-3.33984375 -1.11328125 -3.33984375 -1.11328125 0 0 Z " fill="#CDD6E7" transform="translate(766,419)"/>
<path d="M0 0 C-7.92 3.96 -7.92 3.96 -16 8 C-16.33 6.68 -16.66 5.36 -17 4 C-14.54453034 3.13670227 -12.08621957 2.28410564 -9.625 1.4375 C-8.57699219 1.0672168 -8.57699219 1.0672168 -7.5078125 0.68945312 C-2.2265625 -1.11328125 -2.2265625 -1.11328125 0 0 Z " fill="#CAD2E5" transform="translate(742,356)"/>
<path d="M0 0 C0.33 0.99 0.66 1.98 1 3 C-1.26708325 3.8655047 -3.53775079 4.71759315 -5.8125 5.5625 C-6.45509766 5.80935547 -7.09769531 6.05621094 -7.75976562 6.31054688 C-12.66015625 8.11328125 -12.66015625 8.11328125 -16 7 C-13.71070947 5.82845707 -11.41881638 4.66261926 -9.125 3.5 C-8.47402344 3.16613281 -7.82304687 2.83226562 -7.15234375 2.48828125 C-2.2265625 0 -2.2265625 0 0 0 Z " fill="#294D98" transform="translate(316,565)"/>
<path d="M0 0 C-8.03501094 4.07877462 -8.03501094 4.07877462 -12.0625 3.75 C-12.701875 3.5025 -13.34125 3.255 -14 3 C-9.5718927 0.52025991 -4.9510693 -1.65035643 0 0 Z " fill="#A6B7D5" transform="translate(782,506)"/>
<path d="M0 0 C0.85851562 0.55300781 0.85851562 0.55300781 1.734375 1.1171875 C0.300935 1.64909291 -1.13757867 2.16734008 -2.578125 2.6796875 C-3.77888672 3.11474609 -3.77888672 3.11474609 -5.00390625 3.55859375 C-7.265625 4.1171875 -7.265625 4.1171875 -10.265625 3.1171875 C-9.02678181 2.38951747 -7.77394159 1.68563935 -6.515625 0.9921875 C-5.81953125 0.59773437 -5.1234375 0.20328125 -4.40625 -0.203125 C-2.265625 -0.8828125 -2.265625 -0.8828125 0 0 Z " fill="#395FA5" transform="translate(331.265625,630.8828125)"/>
<path d="M0 0 C-2.17424117 2.50037734 -3.73045798 3.43628586 -7 4 C-7 3.34 -7 2.68 -7 2 C-7.66 1.67 -8.32 1.34 -9 1 C-5.8035914 -0.06546953 -3.34252724 -0.07427838 0 0 Z " fill="#DADFED" transform="translate(771,509)"/>
<path d="M0 0 C-2.31 1.32 -4.62 2.64 -7 4 C-7.33 3.01 -7.66 2.02 -8 1 C-3.375 -1.125 -3.375 -1.125 0 0 Z " fill="#4B9E46" transform="translate(662,739)"/>
<path d="M0 0 C0.66 0.66 1.32 1.32 2 2 C1.01 4.31 0.02 6.62 -1 9 C-1.66 8.67 -2.32 8.34 -3 8 C-1.125 1.125 -1.125 1.125 0 0 Z " fill="#40A528" transform="translate(308,361)"/>
<path d="M0 0 C0 3.57575896 -1.08840607 5.05295935 -3 8 C-3.99 7.67 -4.98 7.34 -6 7 C-4.02 4.69 -2.04 2.38 0 0 Z " fill="#0F3F77" transform="translate(353,294)"/>
<path d="M0 0 C0.66 0.33 1.32 0.66 2 1 C0.875 2.5 0.875 2.5 -1 4 C-4.1875 4.1875 -4.1875 4.1875 -7 4 C-4.61426621 2.10786631 -2.92824652 0.97608217 0 0 Z " fill="#50AD42" transform="translate(404,247)"/>
</svg>
